<svg width="14" height="15" viewBox="0 0 14 15" fill="none" xmlns="http://www.w3.org/2000/svg">
<path d="M5.55208 5.7119C5.32917 5.73024 5.12131 5.83174 4.96978 5.99625C4.81825 6.16076 4.73413 6.37624 4.73413 6.5999C4.73413 6.82356 4.81825 7.03905 4.96978 7.20355C5.12131 7.36806 5.32917 7.46956 5.55208 7.4879C5.66399 7.48327 5.7739 7.45662 5.87551 7.40947C5.97712 7.36232 6.06843 7.2956 6.14422 7.21312C6.22001 7.13064 6.27879 7.03402 6.31721 6.9288C6.35562 6.82358 6.37291 6.71181 6.36808 6.5999C6.37358 6.48784 6.35676 6.37579 6.31859 6.27028C6.28043 6.16477 6.22168 6.06789 6.14576 5.98527C6.06985 5.90265 5.97827 5.83594 5.87635 5.78901C5.77443 5.74209 5.66421 5.71587 5.55208 5.7119ZM8.47208 5.7119C8.2933 5.6968 8.11413 5.73602 7.95801 5.82444C7.80189 5.91285 7.6761 6.04633 7.5971 6.20742C7.5181 6.36851 7.48957 6.54969 7.51525 6.72726C7.54093 6.90483 7.61961 7.07051 7.74101 7.20261C7.86241 7.33472 8.02086 7.4271 8.19563 7.46767C8.3704 7.50823 8.55334 7.49509 8.72052 7.42996C8.88769 7.36483 9.03131 7.25075 9.13258 7.10265C9.23385 6.95454 9.28804 6.77932 9.28808 6.5999C9.2929 6.48799 9.27562 6.37623 9.23721 6.27101C9.19879 6.16578 9.14001 6.06917 9.06422 5.98669C8.98843 5.90421 8.89712 5.83749 8.79551 5.79034C8.6939 5.74318 8.58399 5.71653 8.47208 5.7119Z" fill="white"/>
<path d="M12.36 -1H1.64C1.42411 -0.999475 1.21044 -0.956432 1.01118 -0.873329C0.811918 -0.790225 0.63098 -0.668688 0.478691 -0.515657C0.326403 -0.362625 0.205748 -0.181097 0.123615 0.0185632C0.0414817 0.218224 -0.000521048 0.432107 4.87844e-06 0.648V11.464C-0.000521048 11.6799 0.0414817 11.8938 0.123615 12.0934C0.205748 12.2931 0.326403 12.4746 0.478691 12.6277C0.63098 12.7807 0.811918 12.9022 1.01118 12.9853C1.21044 13.0684 1.42411 13.1115 1.64 13.112H10.712L10.288 11.632L11.312 12.584L12.28 13.484L14 15V0.648C14.0005 0.432107 13.9585 0.218224 13.8764 0.0185632C13.7943 -0.181097 13.6736 -0.362625 13.5213 -0.515657C13.369 -0.668688 13.1881 -0.790225 12.9888 -0.873329C12.7896 -0.956432 12.5759 -0.999475 12.36 -1V-1ZM9.27201 9.448C9.27201 9.448 8.984 9.1 8.74401 8.8C9.3239 8.6635 9.83681 8.32627 10.192 7.848C9.90415 8.03957 9.59551 8.19792 9.27201 8.32C8.89984 8.47886 8.51061 8.59429 8.11201 8.664C7.42685 8.79024 6.72416 8.78753 6.04 8.656C5.63834 8.57741 5.2447 8.46226 4.864 8.312C4.54362 8.18857 4.23778 8.03029 3.952 7.84C4.29436 8.30824 4.78956 8.64215 5.35201 8.784C5.11201 9.084 4.816 9.448 4.816 9.448C4.34078 9.46083 3.86969 9.35664 3.44421 9.1446C3.01872 8.93255 2.65189 8.61916 2.376 8.232C2.40197 6.61017 2.79587 5.01541 3.528 3.568C4.17229 3.06199 4.95777 2.76848 5.776 2.728L5.856 2.828C5.08764 3.01915 4.37071 3.37693 3.756 3.876C3.756 3.876 3.932 3.776 4.228 3.644C4.80328 3.38289 5.41615 3.21415 6.044 3.144C6.08879 3.13473 6.13429 3.12938 6.18 3.128C6.7143 3.05448 7.25547 3.04508 7.792 3.1C8.63708 3.19651 9.45511 3.45741 10.2 3.868C9.61506 3.39357 8.93611 3.04864 8.208 2.856L8.32 2.728C9.13824 2.76848 9.92372 3.06199 10.568 3.568C11.3001 5.01541 11.694 6.61017 11.72 8.232C11.4419 8.61877 11.0735 8.93173 10.6468 9.14366C10.2202 9.35559 9.74823 9.46006 9.27201 9.448Z" fill="white"/>
</svg>
