<svg width="16" height="16" viewBox="0 0 16 16" fill="none" xmlns="http://www.w3.org/2000/svg">
<path d="M8 15.5C12.1421 15.5 15.5 12.1421 15.5 8C15.5 3.85786 12.1421 0.5 8 0.5C3.85786 0.5 0.5 3.85786 0.5 8C0.5 12.1421 3.85786 15.5 8 15.5Z" stroke="#535353" stroke-linecap="round" stroke-linejoin="round"/>
<path d="M5 7C5.55228 7 6 6.55228 6 6C6 5.44772 5.55228 5 5 5C4.44772 5 4 5.44772 4 6C4 6.55228 4.44772 7 5 7Z" fill="#535353"/>
<path d="M11 7C11.5523 7 12 6.55228 12 6C12 5.44772 11.5523 5 11 5C10.4477 5 10 5.44772 10 6C10 6.55228 10.4477 7 11 7Z" fill="#535353"/>
<path d="M11 9.80005C10.6889 10.3178 10.2491 10.7461 9.72341 11.0436C9.19771 11.341 8.604 11.4973 8 11.4973C7.396 11.4973 6.80229 11.341 6.27659 11.0436C5.75089 10.7461 5.31111 10.3178 5 9.80005" stroke="#535353" stroke-linecap="round" stroke-linejoin="round"/>
</svg>
