<svg width="14" height="16" viewBox="0 0 14 16" fill="none" xmlns="http://www.w3.org/2000/svg">
<path d="M11 6H9V4C9 3.46957 8.78929 2.96086 8.41421 2.58579C8.03914 2.21071 7.53043 2 7 2C6.46957 2 5.96086 2.21071 5.58579 2.58579C5.21071 2.96086 5 3.46957 5 4V6H3V4C3 2.93913 3.42143 1.92172 4.17157 1.17157C4.92172 0.421427 5.93913 0 7 0C8.06087 0 9.07828 0.421427 9.82843 1.17157C10.5786 1.92172 11 2.93913 11 4V6Z" fill="white"/>
<path d="M13 7H1C0.734784 7 0.48043 7.10536 0.292893 7.29289C0.105357 7.48043 0 7.73478 0 8V15C0 15.2652 0.105357 15.5196 0.292893 15.7071C0.48043 15.8946 0.734784 16 1 16H13C13.2652 16 13.5196 15.8946 13.7071 15.7071C13.8946 15.5196 14 15.2652 14 15V8C14 7.73478 13.8946 7.48043 13.7071 7.29289C13.5196 7.10536 13.2652 7 13 7ZM7 13C6.60444 13 6.21776 12.8827 5.88886 12.6629C5.55996 12.4432 5.30362 12.1308 5.15224 11.7654C5.00087 11.3999 4.96126 10.9978 5.03843 10.6098C5.1156 10.2219 5.30608 9.86549 5.58579 9.58579C5.86549 9.30608 6.22186 9.1156 6.60982 9.03843C6.99778 8.96126 7.39991 9.00087 7.76537 9.15224C8.13082 9.30362 8.44318 9.55996 8.66294 9.88886C8.8827 10.2178 9 10.6044 9 11C9 11.5304 8.78929 12.0391 8.41421 12.4142C8.03914 12.7893 7.53043 13 7 13Z" fill="white"/>
</svg>
